<?xml version="1.0" encoding="UTF-8"?>
<svg id="Layer_1" data-name="Layer 1" xmlns="http://www.w3.org/2000/svg" xmlns:xlink="http://www.w3.org/1999/xlink" viewBox="0 0 841.89 595.28">
  <defs>
    <style>
      .cls-1 {
        fill: url(#linear-gradient);
      }

      .cls-1, .cls-2, .cls-3, .cls-4, .cls-5 {
        stroke-width: 0px;
      }

      .cls-2 {
        fill: #41b649;
      }

      .cls-3 {
        fill: #3d5dab;
      }

      .cls-4 {
        fill: url(#linear-gradient-2);
      }

      .cls-5 {
        fill: url(#linear-gradient-3);
      }
    </style>
    <linearGradient id="linear-gradient" x1="171.63" y1="222.38" x2="205.01" y2="222.38" gradientTransform="translate(-61.48 82.01) rotate(-19.79)" gradientUnits="userSpaceOnUse">
      <stop offset="0" stop-color="#2a97d4"/>
      <stop offset="1" stop-color="#3d5dab"/>
    </linearGradient>
    <linearGradient id="linear-gradient-2" x1="170.67" y1="232.71" x2="232.88" y2="232.71" xlink:href="#linear-gradient"/>
    <linearGradient id="linear-gradient-3" x1="201.93" y1="240.9" x2="212.96" y2="240.9" xlink:href="#linear-gradient"/>
  </defs>
  <g>
    <path class="cls-3" d="m312.42,342.74c-1.12-.34-2.36-.74-3.73-1.21.12-.34.08-.64-.14-.91-.22-.27-.67-.44-1.35-.5-.93-.67-1.86-1.56-2.8-2.66-.93-1.11-1.72-2.23-2.38-3.37-.65-1.14-1.1-2.01-1.35-2.61-.44-1.01-.48-1.62-.14-1.86.34-.23.85-.52,1.54-.85.68-.54,1.33-.85,1.96-.96.62-.1,1.18.42,1.68,1.56.81,1.54,2.11,2.8,3.91,3.77,1.8.97,3.85,1.51,6.15,1.61,2.3.1,4.56-.35,6.8-1.36,1.74-.8,2.75-1.82,3.03-3.07.28-1.24-.11-2.73-1.16-4.47-.19-.54-.44-.97-.75-1.31-.31-.33-.78-.77-1.4-1.31-.62-.54-1.52-1.41-2.7-2.61-.93-.47-1.79-.9-2.56-1.31-.78-.4-1.6-.84-2.47-1.31-.99-.54-2.13-1.31-3.4-2.31-1.27-1.01-2.47-2.11-3.59-3.32-1.12-1.21-1.96-2.35-2.52-3.42-.99-1.01-1.66-2.4-2-4.17-.34-1.78-.37-3.67-.09-5.68s.82-3.82,1.63-5.43c.37-.94,1.04-2.14,2-3.62.96-1.47,2.03-2.98,3.21-4.52,1.18-1.54,2.33-2.93,3.45-4.17,1.12-1.24,2.02-2.09,2.7-2.56.5-.54,1.3-1.37,2.42-2.51.06-.34.25-.5.56-.5.31-.2.99-.54,2.05-1.01,1.05-.47,2.2-1.34,3.45-2.61,4.16-2.14,7.65-3.64,10.48-4.47,2.83-.84,5.08-1.26,6.75-1.26,1.55.07,3.04.49,4.47,1.26,1.43.77,2.64,1.78,3.63,3.02.99,1.24,1.58,2.66,1.77,4.27.43,1.61.26,3.52-.51,5.73-.78,2.21-1.88,4.27-3.31,6.18-1.43,1.91-2.92,3.33-4.47,4.27-1.74.8-3.11.99-4.1.55-.99-.44-1.46-1.29-1.4-2.56,0-.54.17-1.17.51-1.91.34-.74,1.29-2.04,2.84-3.92,1.99-3.15,3.09-5.48,3.31-6.99.22-1.51-.3-2.36-1.54-2.56-.37-.13-1.07-.12-2.1.05-1.02.17-2.13.4-3.31.7-1.18.3-2.21.6-3.07.91-.87.3-1.3.52-1.3.65,0,.4-.12.57-.37.5-.12,0-.59.22-1.4.65-.81.44-1.76,1.04-2.84,1.81-1.09.77-2.17,1.53-3.26,2.26-1.09.74-2,1.41-2.75,2.01-.74.6-1.15.94-1.21,1.01-.13.74-.84,1.41-2.14,2.01-1.24.8-2.34,1.96-3.31,3.47-.96,1.51-2.07,3.4-3.31,5.68-1.06,1.54-1.8,3.2-2.24,4.98-.44,1.78-.44,3.2,0,4.27.31,1.07,1.19,2.23,2.65,3.47,1.46,1.24,3.4,2.63,5.82,4.17,2.11,1.27,4.07,2.6,5.87,3.97,1.8,1.37,3.32,2.68,4.56,3.92,1.24,1.24,2.05,2.3,2.42,3.17.75,1.14,1.23,2.4,1.44,3.77.22,1.37.28,2.7.19,3.97-.09,1.27-.26,2.35-.51,3.22-.44,1.07-1.13,2.2-2.1,3.37-.96,1.17-1.82,1.72-2.56,1.66-.68.2-1.2.44-1.54.7-.34.27-.73.5-1.16.7-.44.27-1.43.57-2.98.91-1.55.33-3.25.6-5.08.8-1.83.2-3.46.27-4.89.2Z"/>
    <path class="cls-3" d="m348.56,332.39c-.44.07-.9-.07-1.4-.4-.5-.34-.96-.67-1.4-1.01-.62-.74-1.04-1.36-1.26-1.86-.22-.5-.31-1.11-.28-1.81.03-.7.14-1.62.33-2.76.31-1.07.68-2.53,1.12-4.37.43-1.84.93-3.77,1.49-5.78.19-.87.45-1.88.79-3.02.34-1.14.7-2.21,1.07-3.22.37-1.01.65-1.78.84-2.31.43-1.74.88-3.37,1.35-4.88s1.04-3.23,1.72-5.18c.68-1.94,1.52-4.46,2.51-7.54,1.37-4.02,2.39-7.05,3.07-9.1.68-2.04,1.2-3.52,1.54-4.42.34-.91.57-1.62.7-2.16,0-.54.28-1.02.84-1.46.56-.44,1.09-.65,1.58-.65.87.07,1.66.6,2.38,1.61.71,1.01,1.2,2.2,1.44,3.57.25,1.37.06,2.66-.56,3.87-.99,2.41-2,5.18-3.03,8.29-1.02,3.12-2.02,6.18-2.98,9.2-.96,3.02-1.91,5.73-2.84,8.14-.06.27-.23.79-.51,1.56-.28.77-.54,1.42-.79,1.96-.25.54-.59,1.27-1.02,2.21-.06.34-.19.87-.37,1.61-.19.74-.41,1.47-.65,2.21-.12.47-.28,1.11-.47,1.91s-.31,1.51-.37,2.11c.31-.47.81-1.09,1.49-1.86.68-.77,1.46-1.59,2.33-2.46.99-.94,1.96-1.82,2.89-2.66.93-.84,1.77-1.52,2.51-2.06.68-.54,1.61-1.24,2.79-2.11.06-.27.19-.49.37-.65.19-.17.37-.28.56-.35.19-.07.39-.2.61-.4.22-.2.42-.44.61-.7.37-.34.89-.64,1.54-.91.65-.27,1.37-.49,2.14-.65.78-.17,1.47-.25,2.1-.25.75,0,1.46.27,2.14.8.68.54,1.37,1.37,2.05,2.51.68.94,1.12,2.06,1.3,3.37s.15,2.87-.09,4.67c0,.54-.12,1.46-.37,2.77-.25,1.31-.4,2.4-.47,3.27l-.75,3.32h.93c.62-.2,1.52-.1,2.7.3.31.2.59.44.84.7.25.27.5.44.75.5.5.4.56,1.04.19,1.91-.37.87-.9,1.54-1.58,2.01-1.49,1.07-2.83,1.69-4.01,1.86-1.18.17-2.33-.18-3.45-1.06-1.12-.94-1.86-2.04-2.24-3.32-.37-1.27-.44-2.95-.19-5.03.25-2.95.39-5.09.42-6.43.03-1.34-.3-2.01-.98-2.01s-1.71.4-3.07,1.21c-1.37.8-2.89,1.91-4.56,3.32-1.68,1.41-3.34,2.95-4.98,4.63-1.65,1.68-3.06,3.39-4.24,5.13-.75,1.01-1.52,1.96-2.33,2.87-.81.91-1.74,1.39-2.79,1.46Z"/>
    <path class="cls-3" d="m390.48,334.1c-.25-.54-.71-1.04-1.4-1.51-.68-.47-1.02-.84-1.02-1.11s-.09-.64-.28-1.11c-.19-.47-.4-.84-.65-1.11-.31-.4-.23-1.37.23-2.92.47-1.54,1.16-3.42,2.1-5.63s1.99-4.49,3.17-6.84c.5-.54.99-1.24,1.49-2.11.5-.87.87-1.44,1.12-1.71,0-.27.09-.52.28-.75.19-.23.4-.35.65-.35l.56-1.31c.06-.27.4-.8,1.02-1.61.62-.8,1.4-1.69,2.33-2.66.93-.97,1.86-1.89,2.79-2.76.93-.87,1.71-1.51,2.33-1.91,1.3-.94,2.66-1.42,4.05-1.46,1.4-.03,2.59.39,3.59,1.26.19.2.57.59,1.16,1.16.59.57,1.26,1.19,2,1.86.75.67,1.43,1.31,2.05,1.91l3.45,3.32-1.58,5.03c-.81,2.68-1.01,5.03-.61,7.04.4,2.01.98,3.75,1.72,5.23.31.74.81,1.36,1.49,1.86.68.5,1.46.82,2.33.96.5.07.96.27,1.4.6.43.34.65.87.65,1.61,0,1.27-.22,2.21-.65,2.82-.44.6-.96.97-1.58,1.11-2.05.27-3.99-.07-5.82-1.01-1.83-.94-3.49-2.95-4.98-6.03-.25-.4-.57-1.16-.98-2.26-.4-1.11-.64-1.82-.7-2.16-.25.34-.62.82-1.12,1.46-.5.64-.93,1.16-1.3,1.56-4.41,4.83-8.2,7.99-11.36,9.5-3.17,1.51-5.81,1.53-7.92.05Zm6.61-7.94c1.06-.54,2.36-1.47,3.91-2.82,2.11-1.94,3.97-3.74,5.59-5.38,1.61-1.64,3.07-3.47,4.38-5.48l2.05-3.62c-.62-1.54-1.21-2.56-1.77-3.07-.56-.5-1.09-.75-1.58-.75-.81,0-1.85.64-3.12,1.91s-2.67,3.07-4.19,5.38c-1.52,2.31-3.15,5.04-4.89,8.19-.75,1.41-1.55,3.45-2.42,6.13.31.2.99.03,2.05-.5Z"/>
    <path class="cls-3" d="m455.88,336.31c-.75.07-1.44.08-2.1.05-.65-.03-1.2-.22-1.63-.55-1.06-1.07-1.74-1.94-2.05-2.61-.31-.67-.44-1.51-.37-2.51.12-1.01.19-1.96.19-2.87v-2.16c-.25-.27-.73,0-1.44.8-.71.8-1.57,1.64-2.56,2.51-1.99,2.41-3.76,4.19-5.31,5.33-1.55,1.14-2.97,1.84-4.24,2.11-1.27.27-2.5.34-3.68.2-1.12-.13-2.07-.7-2.84-1.71-.78-1.01-1.32-2.24-1.63-3.72-.31-1.47-.4-2.95-.28-4.42.31-2.55.84-4.91,1.58-7.09.75-2.18,1.89-4.51,3.45-6.99.75-1.14,1.74-2.36,2.98-3.67,1.24-1.31,2.59-2.5,4.05-3.57,1.46-1.07,2.78-1.84,3.96-2.31,1.68-.8,3.17-1.19,4.47-1.16,1.3.03,2.55.22,3.73.55.87.47,1.55.7,2.05.7s.87-.34,1.12-1.01c.37-.54.67-1.26.89-2.16.22-.91.54-1.76.98-2.56l2.05-6.53c.68-1.81,1.47-3.82,2.38-6.03.9-2.21,1.91-4.76,3.03-7.64,1.3-2.48,2.42-3.82,3.35-4.02.93-.2,1.89.3,2.89,1.51.75.8,1.12,1.78,1.12,2.92s-.37,2.65-1.12,4.52c-.44.74-.87,1.58-1.3,2.51-.44.94-.99,2.11-1.68,3.52-.68,1.88-1.38,3.67-2.1,5.38-.71,1.71-1.44,3.6-2.19,5.68-.25,1.07-.57,2.31-.98,3.72-.4,1.41-.73,2.68-.98,3.82-.19,1.07-.39,2.06-.6,2.97-.22.91-.45,1.36-.7,1.36-.5.54-.96,1.56-1.4,3.07-.44,1.51-.79,3.08-1.07,4.73-.28,1.64-.51,3-.7,4.07-.12.8-.22,1.89-.28,3.27-.06,1.37-.09,2.7-.09,3.97v2.61c0,1.34-.06,2.25-.19,2.71-.13.47-.37.7-.75.7Zm-20.68-7.44c1.37,0,2.72-.64,4.05-1.91,1.33-1.27,2.78-2.65,4.33-4.12.93-.94,1.91-2.08,2.93-3.42,1.02-1.34,1.99-2.68,2.89-4.02.9-1.34,1.61-2.5,2.14-3.47.53-.97.79-1.59.79-1.86,0-.33-.25-.6-.75-.8-.5-.2-1.07-.37-1.72-.5-.65-.13-1.2-.13-1.63,0-1.49.4-2.75,1.09-3.77,2.06-1.02.97-2.38,2.46-4.05,4.47-1.62,2.21-2.94,4.36-3.96,6.43-1.02,2.08-1.65,3.79-1.86,5.13-.22,1.34-.02,2.01.61,2.01Z"/>
    <path class="cls-3" d="m500.41,335.51c-1.18.34-2.28.54-3.31.6-1.02.07-2-.4-2.93-1.41-.56-.94-1.06-1.78-1.49-2.51-.44-.74-.71-2.04-.84-3.92-.06-1.27.01-2.66.23-4.17.22-1.51.29-2.6.23-3.27.5-2.48.65-4.32.47-5.53-.19-1.21-.44-1.81-.75-1.81-.68-.13-1.8.47-3.35,1.81-1.55,1.34-3.37,3.15-5.45,5.43-2.08,2.28-4.24,4.79-6.47,7.54-1.18,1.74-2.02,3.03-2.51,3.87-.5.84-.87,1.26-1.12,1.26-.93,0-1.83-.18-2.7-.55-.87-.37-1.58-.89-2.14-1.56-.56-.67-.87-1.34-.93-2.01,0-.27.14-.99.42-2.16.28-1.17.65-2.53,1.12-4.07.47-1.54.88-2.98,1.26-4.32.37-1.34.65-2.28.84-2.82.62-1.74,1.32-3.87,2.1-6.38.78-2.51,1.47-4.74,2.1-6.69.25-.87.68-2.13,1.3-3.77.62-1.64,1.24-3.3,1.86-4.98.62-1.67,1.06-2.92,1.3-3.72.19-.54.53-1.49,1.02-2.86.5-1.37,1.04-2.9,1.63-4.57.59-1.67,1.15-3.23,1.68-4.67.53-1.44.89-2.5,1.07-3.17-.06-.6-.02-1.16.14-1.66.15-.5.33-.89.51-1.16.25,0,.68-.03,1.3-.1,0-.13.36,0,1.07.4.71.4,1.43.89,2.14,1.46.71.57,1.07,1.06,1.07,1.46.31.87.34,2,.09,3.37-.25,1.37-.9,3.44-1.96,6.18-.68,1.07-1.35,2.68-2,4.83-.65,2.15-1.29,3.96-1.91,5.43-.25.47-.64,1.36-1.16,2.66-.53,1.31-1.13,2.83-1.82,4.57-.68,1.74-1.34,3.54-1.96,5.38-.62,1.84-1.15,3.6-1.58,5.28-.62,1.61-.84,2.68-.65,3.22.19.54.93-.07,2.24-1.81,1.74-2.01,3.45-3.89,5.12-5.63,1.68-1.74,3.24-3.18,4.7-4.32,1.46-1.14,2.72-1.64,3.77-1.51.56.14,1.24.55,2.05,1.26.81.7,1.6,1.49,2.38,2.36.78.87,1.29,1.71,1.54,2.51.25,1.01.42,1.91.51,2.71.09.8.11,1.98.05,3.52-.06,1.54-.22,3.85-.47,6.94-.37,2.28-.62,3.91-.75,4.88-.13.97-.08,1.66.14,2.06.22.4.57.84,1.07,1.31.93.8,1.33,1.68,1.21,2.61-.13.94-.62,1.68-1.49,2.21Z"/>
    <path class="cls-3" d="m516.05,335.61c-1.3-.07-2.42-.89-3.35-2.46-.93-1.57-1.52-3.33-1.77-5.28.06-.54.14-1.31.23-2.31.09-1.01.2-2.04.33-3.12.25-1.27.61-2.88,1.07-4.83.47-1.94.93-3.92,1.4-5.93s.89-3.74,1.26-5.18c.37-1.44.59-2.3.65-2.56.37-.8,1.1-1.01,2.19-.6,1.09.4,2.03,1.21,2.84,2.41.37.54.61,1.17.7,1.91.09.74,0,1.81-.28,3.22-.28,1.41-.79,3.49-1.54,6.23-.68,2.68-1.2,4.84-1.54,6.48-.34,1.64-.48,3.37-.42,5.18-.25,2.82-.48,4.67-.7,5.58-.22.91-.57,1.32-1.07,1.26Zm9.32-41.22c-.25.2-.48.29-.7.25-.22-.03-.57-.22-1.07-.55-.44-.07-.98-.37-1.63-.91-.65-.54-1.21-1.12-1.68-1.76-.47-.64-.7-1.02-.7-1.16-.06-.67-.02-1.67.14-3.02.15-1.34.48-2.58.98-3.72.5-1.14,1.21-1.74,2.14-1.81.25,0,.68.1,1.3.3.62.2,1.4.5,2.33.91.5,1.01.98,2.25,1.44,3.72.47,1.47.57,2.92.33,4.32-.25,1.41-1.21,2.55-2.89,3.42Z"/>
    <path class="cls-3" d="m560.4,333.59c-1.37-.13-2.48-.45-3.35-.95-.87-.5-1.58-1.49-2.14-2.97-.25-1.07-.39-2.19-.42-3.37-.03-1.17,0-2.29.09-3.37.09-1.07.17-1.94.23-2.61.06-.13.09-.45.09-.96v-1.56c-.12-1.07-.39-1.72-.79-1.96-.4-.23-1.04-.12-1.91.35-1.24.67-2.67,1.58-4.29,2.71-1.62,1.14-3.29,2.45-5.03,3.92-1.74,1.47-3.48,3.02-5.22,4.63-1.37,1.61-2.31,2.88-2.84,3.82-.53.94-1.1,1.41-1.72,1.41-.5.27-.99.23-1.49-.1-.5-.33-1.06-.77-1.68-1.31-.44-.54-.92-1.17-1.44-1.91-.53-.74-.85-1.24-.98-1.51,0-.8.08-1.67.23-2.61.15-.94.4-1.91.75-2.92.34-1.01.7-1.94,1.07-2.82.25-.34.48-.79.7-1.36.22-.57.51-1.19.89-1.86.19-.87.53-1.94,1.02-3.22.5-1.27.96-2.45,1.4-3.52.75-1.68,1.3-3.12,1.68-4.32.37-1.21.65-2.58.84-4.12-.06-.13-.02-.34.14-.6.15-.27.36-.44.61-.5h.09c.43-.4,1.18-.49,2.24-.25,1.06.24,1.86.69,2.42,1.36,1.24,1.34,1.82,2.93,1.72,4.78-.09,1.84-1.04,4.34-2.84,7.49-.44,1.07-.85,2.01-1.26,2.82-.4.8-.61,1.37-.61,1.71,1.12-.87,2.05-1.59,2.79-2.16.75-.57,1.36-1.02,1.86-1.36.31-.33.99-.95,2.05-1.86,1.05-.91,2.22-1.83,3.49-2.76,1.27-.94,2.25-1.61,2.94-2.01.62-.47,1.38-.94,2.28-1.41.9-.47,1.47-.7,1.72-.7.56,0,1.27.25,2.14.75.87.5,1.68,1.11,2.42,1.81s1.18,1.32,1.3,1.86c0,.27-.02.59-.05.96-.03.37-.05.72-.05,1.06.06,1.01.11,2.25.14,3.72.03,1.47.01,2.92-.05,4.32-.06,1.41-.22,2.55-.47,3.42.12.27.25.47.37.6-.06.13-.06.34,0,.6-.06.27-.03.65.09,1.16.12.5.33,1.06.61,1.66.28.6.61,1.27.98,2.01.19.87-.02,1.69-.61,2.46-.59.77-1.32,1.29-2.19,1.56Z"/>
    <path class="cls-2" d="m582.66,282.32c-2.3.2-3.88-.05-4.75-.75-.87-.7-1.18-1.59-.93-2.66.19-.8.62-1.46,1.3-1.96.68-.5,1.86-.92,3.54-1.26.68-.13,1.57-.3,2.65-.5,1.09-.2,2.13-.4,3.12-.6,2.05-.27,3.74-.5,5.08-.7,1.33-.2,2.72-.37,4.15-.5,1.43-.13,3.23-.27,5.4-.4,1.8-.13,3.97-.3,6.52-.5.19,0,.84.07,1.96.2,1.12.14,2.33.3,3.63.5,1.3.2,2.27.44,2.89.7,1.43.34,2.53.89,3.31,1.66.78.77,1.29,1.73,1.54,2.87.19.8.19,1.37,0,1.71-.19.34-.53.64-1.02.91-1.43.47-2.55.8-3.35,1.01-.81.2-1.65.13-2.51-.2-.31-.33-.67-.64-1.07-.91-.4-.27-1.09-.49-2.05-.65-.96-.17-2.47-.32-4.52-.45-1.74.2-3.26.3-4.56.3s-1.96.17-1.96.5l-5.5.3-4.56.5c-.62.07-1.49.15-2.61.25-1.12.1-2.2.2-3.26.3-1.06.1-1.86.22-2.42.35Zm-.84,59.42c-.93.07-1.74-.45-2.42-1.56-.68-1.11-.99-2.06-.93-2.87.06-1.07.34-2.61.84-4.62.5-2.01,1.06-4.06,1.68-6.13.62-2.08,1.18-3.72,1.68-4.93.25-1.07.48-2.03.7-2.87.22-.84.36-1.39.42-1.66.19-.27.48-.97.89-2.11.4-1.14.73-2.24.98-3.32.12-.54.39-1.56.79-3.07.4-1.51.9-3.27,1.49-5.28.59-2.01,1.18-3.99,1.77-5.93.59-1.94,1.1-3.65,1.54-5.13.43-1.47.71-2.45.84-2.92.5-.8.87-1.57,1.12-2.31.25-.74.4-1.24.47-1.51.37-.27.59-.62.65-1.06.06-.44.09-.79.09-1.06,0-.34.11-.6.33-.8.22-.2.33-.44.33-.7.25-.2.4-.34.47-.4.06-.07.25-.27.56-.6l.47-2.82,7.36-.1c-.12.8-.31,1.79-.56,2.97-.25,1.17-.84,2.73-1.77,4.67-.31,1.34-.67,2.55-1.07,3.62-.4,1.07-.57,1.78-.51,2.11-.12.13-.39.8-.79,2.01-.4,1.21-.87,2.68-1.4,4.42-.53,1.74-1.06,3.49-1.58,5.23-.53,1.74-.99,3.27-1.4,4.57-.41,1.31-.67,2.13-.79,2.46-.5,1.07-1.06,2.65-1.68,4.73-.62,2.08-1.55,4.89-2.79,8.45-.5,1.07-1.1,2.68-1.82,4.83-.71,2.15-1.29,4.09-1.72,5.83-.68,2.61-1.26,4.47-1.72,5.58s-.87,1.76-1.21,1.96c-.34.2-.76.3-1.26.3Z"/>
    <path class="cls-2" d="m615.45,334.3c-.19.07-.56.03-1.12-.1-.56-.13-1.1-.3-1.63-.5-.53-.2-.85-.37-.98-.5-.25-.27-.56-.74-.93-1.41-.37-.67-.53-1.57-.47-2.72.06-1.14.62-2.55,1.68-4.22.31-.67.68-1.67,1.12-3.02.43-1.34.89-2.76,1.35-4.27s.9-2.87,1.3-4.07c.4-1.21.7-2.04.89-2.51.12-1.14.08-1.96-.14-2.46-.22-.5-.76-.79-1.63-.86-.62,0-1.1-.18-1.44-.55-.34-.37-.51-1.16-.51-2.36.12-.94.36-1.69.7-2.26.34-.57.82-1.09,1.44-1.56.62-.34,1.35-.57,2.19-.7.84-.13,1.68-.17,2.51-.1.84.07,1.44.3,1.82.7.43.27.76.85.98,1.76.22.91.4,1.83.56,2.76.15.94.26,1.64.33,2.11.62-.54,1.37-1.29,2.24-2.26.87-.97,1.71-1.89,2.51-2.76.99-.74,2.17-1.49,3.54-2.26,1.36-.77,2.36-1.16,2.98-1.16.68,0,1.47.29,2.38.86.9.57,1.47,1.12,1.72,1.66.62,1.14,1.01,2.28,1.16,3.42.15,1.14-.11,2.18-.79,3.12-.62.87-1.44,1.64-2.47,2.31-1.02.67-2.16.87-3.4.6-.37-.07-.78-.49-1.21-1.26-.44-.77-.68-1.36-.75-1.76,0-.2-.31-.02-.93.55-.62.57-1.32,1.26-2.1,2.06-.78.8-1.48,1.54-2.1,2.21-1.06,1.41-2.17,3.32-3.35,5.73-1.18,2.41-2.58,5.33-4.19,8.75-.75,1.68-1.34,3.22-1.77,4.62-.44,1.41-.93,2.21-1.49,2.41Z"/>
    <path class="cls-2" d="m644.61,332.89c-.25,0-1.02-.34-2.33-1.01,0-.27-.08-.6-.23-1.01-.16-.4-.23-.74-.23-1.01-.44-.27-.81-.65-1.12-1.16-.31-.5-.34-1.12-.09-1.86.37-.74.89-1.86,1.54-3.37s1.35-3.18,2.1-5.03c.75-1.84,1.44-3.67,2.1-5.48.65-1.81,1.21-3.35,1.68-4.63.47-1.27.73-2.04.79-2.31,0-.27.06-.69.19-1.26.12-.57.47-1.06,1.02-1.46.68-.6,1.41-.65,2.19-.15.78.5,1.44,1.32,2,2.46.56,1.14.84,2.45.84,3.92,0,.47-.31,1.66-.93,3.57-.62,1.91-1.44,4.17-2.47,6.79-1.02,2.61-2.16,5.26-3.4,7.94-.93,1.94-1.6,3.27-2,3.97-.4.7-.95,1.06-1.63,1.06Zm13.04-38.41c-.75,0-1.6-.35-2.56-1.06-.96-.7-1.82-1.59-2.56-2.66-.75-1.07-1.12-2.21-1.12-3.42,0-.33.25-.9.75-1.71.5-.8.98-1.59,1.44-2.36.47-.77.7-1.22.7-1.36.5,0,1.02.07,1.58.2.56.13,1.06.34,1.49.6.68,1.68,1.57,3.08,2.65,4.22,1.09,1.14,1.63,2.31,1.63,3.52,0,1.47-.26,2.51-.79,3.12-.53.6-1.6.9-3.21.9Z"/>
    <path class="cls-2" d="m656.07,360.44c-.44-.2-1.04-.64-1.82-1.31-.78-.67-1.46-1.41-2.05-2.21-.59-.8-.88-1.41-.88-1.81s.15-1.46.47-3.17c.31-1.71.73-3.79,1.26-6.23.53-2.45,1.12-4.93,1.77-7.44.65-2.51,1.32-4.74,2-6.69.12-.34.54-1.46,1.26-3.37.71-1.91,1.41-4.24,2.1-6.99.5-1.74,1.15-3.72,1.96-5.93.81-2.21,1.65-4.44,2.52-6.69.87-2.25,1.58-4.24,2.14-5.98.56-1.74,1.13-3.38,1.72-4.93.59-1.54.92-2.45.98-2.72.12-.4.43-.75.93-1.06.5-.3,1.01-.57,1.54-.8.53-.23.88-.39,1.07-.45,1.12-.34,2.08.17,2.89,1.51.31.6.37,1.37.19,2.31-.19.94-.53,2.01-1.02,3.22l-.65,2.01,3.35-.8c.56,0,1.32.03,2.28.1.96.07,1.89.12,2.79.15.9.03,1.54.12,1.91.25,1.49.07,2.53.37,3.12.91.59.54,1.1,1.24,1.54,2.11.31.34.68.79,1.12,1.36.43.57.68,1.12.75,1.66.25,1.14.2,2.45-.14,3.92-.34,1.47-.85,2.95-1.54,4.42-.68,1.47-1.51,2.82-2.47,4.02-.96,1.21-1.91,2.15-2.84,2.82-.62.27-1.43.7-2.42,1.31-.06.34-.73.89-2,1.66-1.27.77-2.7,1.49-4.29,2.16-1.58.67-3,1.11-4.24,1.31-.44.07-1.06.14-1.86.2-.81.07-1.43-.03-1.86-.3-.68-.13-1.15-.2-1.4-.2s-.37.13-.37.4c-.06.13-.5,1.32-1.3,3.57-.81,2.25-1.65,5.14-2.51,8.7-1.18,3.89-2.14,7.05-2.89,9.5-.75,2.45-1.32,4.32-1.72,5.63-.41,1.31-.7,2.25-.89,2.82-.19.57-.34.92-.47,1.06Zm11.83-39.11c.19.4.82.52,1.91.35,1.09-.17,2.36-.55,3.82-1.16,1.46-.6,2.81-1.32,4.05-2.16,1.24-.84,2.08-1.72,2.52-2.66,1.36-1.67,2.38-3,3.03-3.97.65-.97.67-1.69.05-2.16-.68-1.07-1.76-1.57-3.21-1.51-1.46.07-3.56.9-6.29,2.51-1.06.4-1.8.8-2.24,1.21-.44.4-.79.96-1.07,1.66-.28.7-.7,1.73-1.26,3.07-.56,1.47-.93,2.58-1.12,3.32-.19.74-.25,1.24-.19,1.51Z"/>
  </g>
  <g>
    <g>
      <path class="cls-2" d="m259.68,334.35c0,19.74-15.28,35.17-41.86,35.17-24.98,0-44.41-11.94-45.68-35.97v-27.23c4.47,8.61,13.81,18.31,33.3,22.01v5.23l-.03.02c0,.1.03.19.03.3v11.42c0,5.83,4.72,10.55,10.55,10.55s10.55-4.72,10.55-10.55v-7.9c.02-.21.03-.42.03-.64-.15-16.83-47.84-10.52-53.55-41.62,7.23-.11,32.48.19,60.37,8.65,13.25,5.23,26.29,12.91,26.29,30.58Z"/>
      <path class="cls-3" d="m258.24,289.31h-.03v25.41c-5.25-7-15.18-14.76-33.87-20.15v-5.6h14.23c2.58,0,4.92-1.06,6.62-2.75,1.71-1.7,2.76-4.04,2.76-6.63,0-3.6-2.05-6.73-5.04-8.31-.78-.41-1.63-.71-2.52-.88-.59-.13-1.19-.19-1.82-.19h-47.65c-.45,0-.88.03-1.31.09-2.06.29-3.91,1.25-5.31,2.66-1.71,1.69-2.77,4.04-2.77,6.62,0,5.17,4.23,9.39,9.39,9.39h15.04c1.08,3.96,5.6,6.56,11.59,8.96-5.14-1.79-18.85-5.64-45.05-7.42-.03-.75-.06-1.52-.04-2.31,0-13.4,6.81-23.01,17.49-28.47.56-.28,1.13-.55,1.71-.81.29-.14.58-.26.87-.39.58-.25,1.16-.47,1.76-.69,5.94-2.24,12.8-3.38,20.18-3.38,9.5,0,17.79,1.71,24.52,4.98.55.26,1.09.54,1.62.83.03.02.07.03.1.05.86.47,1.69.97,2.49,1.5,9.02,5.9,14.42,15.23,15.03,27.5Z"/>
    </g>
    <path class="cls-3" d="m274.24,316.78c-.25,0-.45.21-.46.48-.16,10.78-3.21,21.47-8.86,30.33-5.59,8.89-13.47,16.03-22.43,20.69-2.25,1.14-4.55,2.17-6.91,3.01-2.37.81-4.75,1.55-7.2,2.02-2.43.49-4.89.85-7.36.97-1.23.11-2.47.06-3.7.09-1.24-.06-2.49-.07-3.73-.18-9.79-.66-19.43-3.59-27.73-8.92-4.37-3.37-8.39-7.25-11.75-11.75-2-2.67-3.82-5.51-5.37-8.51-1.54-3.01-2.84-6.17-3.89-9.42-2.11-6.51-3.19-13.42-3.35-20.35-.13-6.92.47-13.97,2.32-20.61v-.02c.09-.3-.06-.62-.35-.72-.29-.1-.6.06-.69.37-2.11,6.78-2.92,13.89-3,21-.04,5.95.59,11.92,1.96,17.73-.54-1.64-1.03-3.3-1.44-4.99-1.26-5.06-1.99-10.22-2.12-15.41-.27-10.38,1.92-20.74,5.92-30.24,1.99-4.76,4.42-9.32,7.19-13.63,1.38-2.15,2.86-4.24,4.41-6.25.78-1,1.57-1.99,2.38-2.94.41-.48.82-.95,1.23-1.41.4-.44.86-.94,1.2-1.28l.05-.05s.04-.04.06-.06c1.44-1.51,1.46-3.98.04-5.52s-3.73-1.56-5.17-.05c-.58.6-1,1.09-1.47,1.63-.46.53-.9,1.07-1.34,1.61-.87,1.08-1.72,2.18-2.54,3.29-1.64,2.23-3.17,4.53-4.62,6.9-2.88,4.74-5.39,9.74-7.44,14.97-2.54,6.46-4.33,13.31-5.2,20.29.28-12.77,3.5-25.51,9.64-36.55.21-.37.1-.86-.25-1.1-.35-.24-.82-.12-1.04.26-8.5,14.52-12.03,32.17-10.36,49.25.83,8.55,2.96,16.97,6.34,24.81.37.85.75,1.7,1.15,2.54.88,2.08,1.85,4.11,2.9,6.09,3.51,6.57,8.11,12.49,13.51,17.36-4.54-3.17-8.66-7.01-12.2-11.42-.62-.69-1.12-1.49-1.68-2.24-.54-.76-1.1-1.51-1.62-2.29l-1.48-2.4-.74-1.2-.67-1.25-1.32-2.51c-.41-.85-.79-1.72-1.19-2.59-.83-1.71-1.44-3.52-2.15-5.29l-.02-.05c-.14-.35-.52-.52-.86-.37-.34.15-.5.56-.37.92.69,1.81,1.27,3.68,2.08,5.44.39.89.75,1.79,1.16,2.67l1.3,2.6.66,1.3.73,1.25,1.47,2.5c.52.81,1.08,1.59,1.62,2.39.56.78,1.06,1.62,1.68,2.34,4.68,6.1,10.45,11.25,16.9,15.12,6.44,3.88,13.49,6.48,20.68,8.15,4.8,1.32,9.72,2.06,14.63,2.26,2.07.11,4.17.1,6.27-.02l1.13.04s.03,0,.03,0c.26,0,.5-.07.71-.18,2.51-.23,5-.63,7.44-1.22,5.11-1.2,10.03-3.16,14.65-5.7,9.22-5.13,17.19-12.79,22.73-22.14,5.6-9.31,8.43-20.39,8.3-31.35,0-.26-.2-.47-.44-.48Z"/>
    <g>
      <path class="cls-1" d="m173.6,227.87l26.96,2.92,7.17-6.14-32.08,1.63s-.08.01-.12.03l-2.03.95c-.29.14-.22.57.1.61Z"/>
      <path class="cls-4" d="m211.52,234.57l-7.68,5.31s-.03.02-.04.03l-10.99,5.43c-.09.04-.15.13-.17.22l-.91,4.42c-.03.13-.12.22-.25.25l-.54.11c-.13.02-.25-.03-.33-.13l-2.04-2.96c-.04-.06-.11-.11-.19-.13l-9.74-2.31c-.24-.06-.32-.35-.16-.53l1.33-1.43c.06-.06.14-.1.23-.1l9.58-.57c.07,0,.15-.03.2-.08l21.43-18.67c3.02-2.31,9.04-6.88,10.7-7.9,2.36-1.46,4.99-1.05,5.43-.96.04,0,.09,0,.13,0,.64-.16,5.58-1.34,6.16-.1.62,1.32-1.45,4.95-3.82,6.9-2.21,1.82-10.67,7.74-11.68,8.42l-6.66,4.79Z"/>
      <path class="cls-5" d="m218.43,230.9l-2.82,13.52c-.02.08-.06.15-.12.19l-2.46.99c-.07.05-.16.07-.25.06l-.64-.12c-.21-.04-.32-.26-.23-.46l.44-.39.28-.28.39-6.21s0-.05,0-.07l-.73-2.91,6.15-4.32Z"/>
    </g>
  </g>
</svg>